<?xml version="1.0" standalone="no"?>
<!DOCTYPE svg PUBLIC "-//W3C//DTD SVG 20010904//EN"
 "http://www.w3.org/TR/2001/REC-SVG-20010904/DTD/svg10.dtd">
<svg version="1.0" xmlns="http://www.w3.org/2000/svg"
 width="512.000000pt" height="512.000000pt" viewBox="0 0 512.000000 512.000000"
 preserveAspectRatio="xMidYMid meet">

<g transform="translate(0.000000,512.000000) scale(0.100000,-0.100000)"
fill="#000000" stroke="none">
<path d="M2295 5114 c-431 -31 -686 -70 -1011 -154 -212 -55 -361 -105 -414
-138 -188 -119 -197 -383 -18 -512 83 -60 77 -60 805 -60 l663 0 0 -204 0
-205 -532 -3 c-518 -3 -535 -4 -599 -26 -133 -45 -268 -161 -328 -284 -50
-102 -61 -175 -61 -425 l0 -223 -124 0 -125 0 -3 178 c-3 165 -5 180 -28 225
-68 134 -231 188 -364 123 -59 -29 -94 -64 -129 -130 l-22 -41 0 -995 0 -995
23 -45 c33 -63 76 -105 136 -131 108 -47 239 -19 316 68 68 78 70 90 70 513
l0 377 -23 21 c-33 31 -80 29 -106 -4 -20 -26 -21 -38 -21 -392 0 -348 -1
-366 -20 -397 -20 -33 -73 -65 -105 -65 -32 0 -85 32 -105 65 -20 32 -20 47
-20 980 0 844 2 951 16 980 21 45 59 68 110 68 46 0 78 -18 105 -60 18 -26 19
-57 19 -475 l0 -447 23 -25 c33 -37 75 -39 107 -4 15 16 20 35 20 75 l0 53
125 0 124 0 3 -862 c4 -958 0 -901 72 -1053 84 -176 241 -314 425 -374 166
-54 812 -111 1261 -111 449 0 1095 57 1261 111 184 60 341 198 425 374 72 152
68 95 72 1053 l3 862 124 0 125 0 0 -563 c0 -631 -1 -619 70 -700 77 -87 208
-115 316 -68 60 26 103 68 136 131 l23 45 0 995 0 995 -22 41 c-35 66 -70 101
-129 130 -133 65 -296 11 -364 -123 -23 -45 -25 -60 -28 -225 l-3 -178 -125 0
-124 0 0 223 c0 250 -11 323 -61 425 -60 123 -195 239 -328 284 -64 22 -81 23
-598 26 l-533 3 0 205 0 204 449 0 c247 0 457 3 466 6 8 4 22 19 30 34 19 36
4 83 -31 99 -18 8 -386 11 -1367 11 -1302 0 -1343 1 -1384 20 -97 43 -119 164
-47 250 56 66 578 204 964 254 253 33 375 41 680 41 558 0 1015 -68 1481 -221
110 -36 143 -51 163 -74 51 -61 57 -131 16 -197 -28 -47 -73 -66 -169 -73 -71
-5 -87 -10 -102 -29 -26 -32 -24 -73 4 -99 20 -19 35 -22 98 -22 91 0 162 19
217 60 179 129 170 393 -18 512 -106 67 -579 191 -925 242 -223 33 -419 48
-695 51 -157 1 -307 1 -335 -1z m353 -1071 l2 -203 -90 0 -90 0 0 198 c0 109
3 202 7 206 4 4 43 5 88 4 l80 -3 3 -202z m1175 -363 c177 -29 310 -164 338
-340 6 -42 9 -530 7 -1360 -3 -1169 -5 -1300 -20 -1341 -66 -188 -197 -325
-365 -381 -156 -53 -781 -108 -1223 -108 -442 0 -1067 55 -1223 108 -168 56
-299 193 -365 381 -15 41 -17 172 -20 1341 -1 805 1 1319 7 1358 27 173 161
314 327 341 70 12 2466 13 2537 1z m1093 -417 c56 -36 54 0 54 -1028 0 -933 0
-948 -20 -980 -20 -33 -73 -65 -105 -65 -32 0 -85 32 -105 65 -20 32 -20 47
-20 985 0 930 0 953 20 984 38 62 115 79 176 39z m-4116 -623 l0 -91 -122 3
-123 3 -3 88 -3 87 126 0 125 0 0 -90z m3768 3 l-3 -88 -122 -3 -123 -3 0 91
0 90 125 0 126 0 -3 -87z"/>
</g>
</svg>
