<?xml version="1.0" standalone="no"?>
<!DOCTYPE svg PUBLIC "-//W3C//DTD SVG 20010904//EN"
 "http://www.w3.org/TR/2001/REC-SVG-20010904/DTD/svg10.dtd">
<svg version="1.0" xmlns="http://www.w3.org/2000/svg"
 width="512.000000pt" height="512.000000pt" viewBox="0 0 512.000000 512.000000"
 preserveAspectRatio="xMidYMid meet">

<g transform="translate(0.000000,512.000000) scale(0.100000,-0.100000)"
fill="#000000" stroke="none">
<path d="M1065 4309 c-61 -15 -111 -55 -140 -112 -23 -46 -25 -63 -25 -170 0
-116 2 -125 71 -380 40 -144 74 -267 76 -274 4 -9 -99 -13 -449 -15 -449 -3
-453 -3 -495 -26 -24 -12 -55 -41 -70 -64 l-28 -42 0 -1145 0 -1146 28 -41
c15 -22 46 -51 70 -65 l42 -24 2415 0 2415 0 42 24 c24 14 55 43 70 65 l28 41
3 498 3 497 -25 25 c-32 32 -70 32 -101 0 l-25 -24 0 -475 0 -475 -22 -15
c-20 -14 -263 -16 -2388 -16 -2125 0 -2368 2 -2388 16 l-22 15 0 1099 c0 985
2 1100 16 1114 14 14 70 16 470 16 l454 0 10 -42 c17 -65 78 -148 134 -183
l49 -30 338 -3 337 -3 -26 -47 c-39 -68 -38 -168 0 -233 61 -104 188 -184 363
-230 78 -21 113 -24 265 -24 152 0 187 3 265 24 175 46 302 126 363 230 39 66
39 165 0 234 l-27 47 318 0 c350 0 369 3 441 60 46 37 72 77 95 148 l17 52
453 0 c399 0 455 -2 469 -16 14 -14 16 -72 16 -490 l0 -475 25 -24 c31 -32 69
-32 101 0 l25 25 -3 498 -3 498 -28 42 c-15 23 -46 52 -70 64 -41 23 -48 23
-493 28 l-451 5 73 270 c72 265 73 272 74 391 0 109 -2 125 -25 171 -30 59
-79 97 -145 112 -62 14 -1299 15 -1336 1 -55 -21 -69 -68 -33 -113 l20 -27
664 -2 c768 -3 705 6 705 -105 l0 -63 -1510 0 -1510 0 0 63 c0 111 -63 102
705 105 l664 2 20 27 c36 45 22 92 -33 113 -35 13 -1284 12 -1341 -1z m2975
-471 c0 -7 -27 -118 -61 -245 l-62 -233 -1357 0 -1357 0 -62 233 c-34 127 -61
238 -61 245 0 9 303 12 1480 12 1177 0 1480 -3 1480 -12z m-170 -639 c0 -21
-33 -66 -60 -83 -26 -15 -137 -16 -1250 -16 -1113 0 -1224 1 -1250 16 -27 17
-60 62 -60 83 0 8 367 11 1310 11 943 0 1310 -3 1310 -11z m-922 -268 c48 -25
109 -86 117 -118 17 -68 -49 -142 -169 -192 -203 -84 -501 -81 -691 8 -189 88
-202 212 -30 304 26 14 78 16 383 17 328 0 355 -1 390 -19z"/>
<path d="M1134 2241 c-48 -12 -92 -42 -122 -85 l-27 -39 0 -423 0 -422 30 -43
c17 -23 48 -52 70 -63 40 -21 44 -21 1150 -21 1092 0 1111 0 1144 20 19 11 48
37 65 58 l31 39 3 419 c3 403 2 420 -18 458 -25 50 -73 87 -130 100 -52 12
-2146 13 -2196 2z m2177 -151 c18 -10 19 -25 19 -395 0 -370 -1 -385 -19 -395
-13 -7 -370 -10 -1085 -10 -954 0 -1066 2 -1080 16 -14 13 -16 63 -16 389 l0
374 22 15 c20 14 139 16 1081 16 710 0 1065 -3 1078 -10z"/>
<path d="M1292 1983 c-21 -8 -43 -61 -36 -88 9 -36 41 -55 94 -55 36 0 52 5
68 23 52 55 10 128 -72 126 -22 0 -47 -3 -54 -6z"/>
<path d="M1543 1978 c-44 -21 -47 -93 -5 -124 22 -17 102 -17 124 0 43 32 38
103 -8 125 -31 14 -81 13 -111 -1z"/>
<path d="M1786 1969 c-18 -15 -26 -30 -26 -53 0 -47 34 -76 91 -76 52 0 84 19
93 55 7 29 -15 79 -39 89 -35 13 -93 6 -119 -15z"/>
<path d="M2035 1965 c-53 -53 -13 -125 70 -125 35 0 52 6 70 25 53 53 13 125
-70 125 -35 0 -52 -6 -70 -25z"/>
<path d="M2302 1983 c-21 -8 -43 -61 -36 -88 9 -35 41 -55 90 -55 56 0 94 30
94 75 0 45 -38 75 -94 74 -22 0 -47 -3 -54 -6z"/>
<path d="M2553 1978 c-44 -21 -47 -93 -5 -124 28 -21 105 -17 130 6 53 50 12
131 -66 129 -20 0 -47 -5 -59 -11z"/>
<path d="M2796 1969 c-34 -27 -36 -77 -3 -107 28 -26 101 -30 134 -7 40 28 37
89 -6 122 -26 20 -95 16 -125 -8z"/>
<path d="M3045 1965 c-53 -53 -13 -125 70 -125 35 0 52 6 70 25 53 53 13 125
-70 125 -35 0 -52 -6 -70 -25z"/>
<path d="M1293 1759 c-48 -25 -51 -104 -4 -128 34 -19 105 -13 129 9 28 27 29
80 2 105 -23 21 -97 29 -127 14z"/>
<path d="M1550 1757 c-35 -18 -50 -53 -38 -88 13 -37 35 -49 88 -49 53 0 75
12 88 49 18 51 -26 101 -88 101 -14 0 -36 -6 -50 -13z"/>
<path d="M1810 1763 c-53 -20 -67 -83 -27 -121 26 -24 93 -30 128 -11 48 25
44 105 -7 128 -26 11 -68 13 -94 4z"/>
<path d="M2053 1760 c-45 -19 -55 -72 -22 -114 18 -22 28 -26 74 -26 46 0 56
4 74 26 44 55 15 113 -59 120 -25 2 -55 0 -67 -6z"/>
<path d="M2303 1759 c-48 -25 -51 -104 -4 -128 37 -20 105 -13 129 12 28 29
29 78 2 102 -23 21 -97 29 -127 14z"/>
<path d="M2546 1748 c-59 -54 -25 -128 60 -128 57 0 79 12 92 49 27 77 -88
136 -152 79z"/>
<path d="M2820 1763 c-53 -19 -68 -86 -28 -123 24 -22 95 -28 129 -9 48 25 44
105 -7 128 -26 11 -68 13 -94 4z"/>
<path d="M3063 1760 c-46 -19 -57 -83 -20 -118 18 -17 36 -22 74 -22 44 0 55
4 72 26 34 43 26 86 -20 109 -31 17 -73 18 -106 5z"/>
<path d="M1303 1540 c-51 -21 -63 -79 -25 -122 23 -26 115 -25 142 2 25 25 26
71 3 99 -20 24 -87 36 -120 21z"/>
<path d="M1560 1543 c-54 -21 -70 -98 -28 -127 31 -22 110 -21 137 2 29 23 31
76 4 103 -20 21 -86 33 -113 22z"/>
<path d="M1813 1543 c-50 -10 -70 -86 -33 -123 19 -19 33 -20 325 -20 292 0
306 1 325 20 25 25 26 71 1 101 l-19 24 -289 1 c-158 1 -298 0 -310 -3z"/>
<path d="M2565 1541 c-51 -22 -65 -91 -24 -123 31 -26 113 -24 139 2 26 26 26
81 1 104 -23 20 -87 30 -116 17z"/>
<path d="M2823 1543 c-50 -10 -70 -86 -33 -123 27 -27 119 -28 143 -2 61 67
-9 147 -110 125z"/>
<path d="M3064 1536 c-50 -22 -60 -78 -21 -114 18 -17 36 -22 74 -22 44 0 55
4 72 26 36 46 22 93 -33 114 -35 13 -54 12 -92 -4z"/>
<path d="M3982 2108 c-86 -15 -175 -97 -213 -197 -27 -68 -36 -205 -20 -281
56 -259 301 -357 461 -183 109 118 136 331 61 487 -62 131 -170 195 -289 174z
m120 -185 c115 -110 56 -413 -79 -413 -120 0 -179 258 -90 391 47 71 109 79
169 22z"/>
</g>
</svg>
