<?xml version="1.0" standalone="no"?>
<!DOCTYPE svg PUBLIC "-//W3C//DTD SVG 20010904//EN"
 "http://www.w3.org/TR/2001/REC-SVG-20010904/DTD/svg10.dtd">
<svg version="1.0" xmlns="http://www.w3.org/2000/svg"
 width="512.000000pt" height="512.000000pt" viewBox="0 0 512.000000 512.000000"
 preserveAspectRatio="xMidYMid meet">

<g transform="translate(0.000000,512.000000) scale(0.100000,-0.100000)"
fill="#000000" stroke="none">
<path d="M1482 4424 c-37 -26 -43 -47 -28 -98 l14 -45 -612 -3 c-563 -3 -614
-4 -651 -21 -104 -47 -173 -127 -194 -227 -9 -41 -11 -277 -9 -900 l3 -845 26
-55 c34 -72 99 -134 169 -162 55 -23 60 -23 647 -26 l592 -3 3 -254 c3 -247 4
-255 25 -276 30 -30 80 -30 105 0 15 19 18 41 18 117 l0 94 85 0 85 0 0 -80
c0 -158 39 -242 135 -290 49 -25 55 -25 318 -28 l267 -3 0 -85 0 -84 -324 0
c-205 0 -335 -4 -353 -11 -69 -26 -116 -97 -115 -175 1 -125 72 -176 318 -227
182 -38 319 -51 554 -51 235 0 372 13 554 51 246 51 317 102 318 227 1 78 -46
149 -115 175 -18 7 -148 11 -353 11 l-324 0 0 84 0 85 268 3 c262 3 268 3 317
28 96 48 135 132 135 290 l0 80 85 0 85 0 0 -94 c0 -76 3 -98 18 -117 25 -30
75 -30 105 0 21 21 22 29 25 276 l3 255 552 0 c305 0 578 4 611 10 114 18 197
79 245 180 l26 55 3 845 c2 623 0 859 -9 900 -21 100 -90 180 -194 227 -37 17
-88 18 -651 21 l-612 3 14 45 c15 51 9 72 -28 98 -20 14 -140 16 -1078 16
-938 0 -1058 -2 -1078 -16z m2003 -153 c-3 -11 -43 -120 -89 -243 l-83 -223
-753 0 -753 0 -83 223 c-46 123 -86 232 -89 243 -6 19 7 19 925 19 918 0 931
0 925 -19z m-1875 -367 c55 -148 91 -230 104 -240 16 -11 65 -14 232 -14 l211
0 7 -72 c11 -117 55 -190 141 -229 35 -16 68 -19 255 -19 187 0 220 3 255 19
86 39 130 112 141 229 l7 72 211 0 c167 0 216 3 232 14 13 10 49 92 104 240
l85 226 621 0 621 0 43 -23 c30 -16 51 -37 67 -67 l23 -44 -2 -847 c-3 -838
-3 -848 -24 -875 -29 -40 -65 -64 -110 -74 -52 -13 -4496 -13 -4548 0 -45 10
-81 34 -110 74 -21 27 -21 37 -24 875 l-2 847 23 44 c16 30 37 51 67 67 l43
23 621 0 621 0 85 -226z m1194 -317 c-1 -46 -6 -63 -24 -82 -23 -25 -24 -25
-220 -25 -192 0 -197 0 -218 23 -22 24 -40 103 -29 132 6 13 36 15 249 13
l243 -3 -1 -58z m-1044 -1632 l0 -86 -82 3 -83 3 -3 83 -3 82 86 0 85 0 0 -85z
m1450 -154 c0 -269 -5 -296 -56 -317 -49 -21 -1139 -21 -1188 0 -51 21 -56 48
-56 317 l0 239 650 0 650 0 0 -239z m318 157 l-3 -83 -82 -3 -83 -3 0 86 0 85
85 0 86 0 -3 -82z m-249 -977 c15 -28 -5 -46 -79 -69 -165 -52 -360 -75 -640
-75 -280 0 -475 23 -640 75 -74 23 -94 41 -79 69 9 18 37 19 719 19 682 0 710
-1 719 -19z"/>
<path d="M4213 3950 c-36 -15 -43 -43 -43 -179 l0 -129 -141 -4 c-134 -3 -142
-4 -160 -27 -18 -22 -19 -44 -19 -372 0 -336 1 -350 20 -369 19 -19 33 -20
294 -20 l275 0 20 26 c19 24 21 40 21 160 l0 134 139 0 c197 0 181 -35 181
386 0 352 -2 373 -47 393 -29 13 -507 14 -540 1z m437 -385 l0 -245 -85 0 -85
0 0 125 c0 71 -5 135 -11 149 -13 29 -55 46 -110 46 l-39 0 0 85 0 85 165 0
165 0 0 -245z m-320 -320 l0 -245 -165 0 -165 0 0 245 0 245 165 0 165 0 0
-245z"/>
<path d="M505 3873 c-75 -16 -94 -41 -102 -136 -11 -109 56 -270 136 -326 l31
-22 -24 -32 c-56 -75 -82 -166 -70 -250 10 -74 36 -98 116 -104 85 -7 149 9
216 53 l53 35 45 -46 c26 -27 73 -60 112 -78 62 -29 75 -32 169 -32 99 0 104
1 130 28 27 26 28 31 28 130 0 96 -2 107 -33 169 -18 37 -53 87 -79 112 -43
43 -45 47 -30 64 30 33 69 133 74 190 7 74 -10 137 -43 159 -44 28 -165 23
-241 -11 -34 -16 -70 -37 -79 -47 -17 -19 -18 -18 -59 25 -23 24 -62 55 -86
69 -75 44 -191 66 -264 50z m173 -172 c77 -39 132 -124 132 -203 0 -26 -3 -28
-37 -28 -105 1 -203 98 -220 217 l-6 46 46 -6 c26 -4 64 -15 85 -26z m449 -77
c-13 -79 -83 -148 -140 -137 -23 5 -27 10 -27 38 0 64 73 123 164 134 5 1 6
-15 3 -35z m-59 -313 c77 -39 132 -124 132 -203 0 -26 -3 -28 -37 -28 -112 1
-223 119 -223 238 0 24 2 24 45 19 25 -4 62 -15 83 -26z m-276 -21 c6 -38 -21
-84 -64 -110 -34 -20 -95 -36 -104 -27 -3 3 0 25 6 48 16 60 78 119 124 119
30 0 34 -4 38 -30z"/>
<path d="M1805 3151 c-45 -11 -74 -32 -98 -71 -19 -31 -22 -52 -25 -176 -4
-165 4 -207 53 -254 l36 -35 532 -3 c369 -2 540 1 558 8 40 17 76 60 88 105
13 48 14 255 1 309 -11 51 -65 105 -116 116 -46 11 -985 11 -1029 1z m1003
-268 l3 -123 -491 0 -490 0 0 118 c0 65 3 122 7 125 3 4 223 6 487 5 l481 -3
3 -122z"/>
<path d="M3320 3150 c-76 -14 -138 -63 -171 -135 -26 -57 -26 -214 0 -270 23
-49 74 -99 123 -119 49 -21 141 -20 186 1 46 22 101 77 119 120 21 51 27 150
13 216 -26 127 -146 210 -270 187z m116 -196 c26 -62 14 -152 -24 -180 -27
-21 -83 -17 -109 8 -20 19 -23 31 -23 98 0 67 3 79 23 97 46 43 110 31 133
-23z"/>
</g>
</svg>
