<svg width="28" height="28" viewBox="0 0 28 28" fill="none" xmlns="http://www.w3.org/2000/svg">
<path fill-rule="evenodd" clip-rule="evenodd" d="M4.24944 20.2847C2.69273 18.6951 1.63686 16.6836 1.21284 14.4995C0.785301 12.3092 1.00485 10.0419 1.84464 7.97444C2.67726 5.91855 4.09876 4.15451 5.93064 2.90384C9.64738 0.365388 14.5403 0.365388 18.257 2.90384C20.089 4.15451 21.5105 5.91855 22.343 7.97444C23.1828 10.0419 23.4024 12.3092 22.9748 14.4995C22.5509 16.6836 21.495 18.6951 19.9382 20.2847C17.8766 22.4002 15.0479 23.5934 12.0938 23.5934C9.13979 23.5934 6.31107 22.4002 4.24944 20.2847Z" stroke="#B0B0B0" stroke-width="1.5" stroke-linecap="round" stroke-linejoin="round"/>
<path d="M12.1064 4.96525C11.3649 5.04381 10.8276 5.70855 10.9061 6.44998C10.9848 7.19142 11.6495 7.72878 12.3909 7.65022L12.1064 4.96525ZM15.4389 9.44583C15.7296 10.1325 16.5217 10.4534 17.2084 10.1627C17.895 9.87205 18.2159 9.07984 17.9252 8.39325L15.4389 9.44583ZM21.0558 19.1564C20.5282 18.6297 19.6734 18.6305 19.1467 19.1582C18.6198 19.6858 18.6207 20.5406 19.1483 21.0673L21.0558 19.1564ZM25.2467 27.1549C25.7745 27.6818 26.6291 27.681 27.156 27.1533C27.6826 26.6255 27.6819 25.7709 27.1542 25.244L25.2467 27.1549ZM12.3909 7.65022C13.6914 7.51242 14.9291 8.24151 15.4389 9.44583L17.9252 8.39325C16.952 6.09409 14.5893 4.70217 12.1064 4.96525L12.3909 7.65022ZM19.1483 21.0673L25.2467 27.1549L27.1542 25.244L21.0558 19.1564L19.1483 21.0673Z" fill="#B0B0B0"/>
</svg>
