<?xml version="1.0" standalone="no"?>
<!DOCTYPE svg PUBLIC "-//W3C//DTD SVG 20010904//EN"
 "http://www.w3.org/TR/2001/REC-SVG-20010904/DTD/svg10.dtd">
<svg version="1.0" xmlns="http://www.w3.org/2000/svg"
 width="512.000000pt" height="512.000000pt" viewBox="0 0 512.000000 512.000000"
 preserveAspectRatio="xMidYMid meet">

<g transform="translate(0.000000,512.000000) scale(0.100000,-0.100000)"
fill="#000000" stroke="none">
<path d="M115 3833 c-35 -9 -87 -54 -101 -89 -12 -29 -14 -205 -12 -1118 3
-1077 3 -1085 24 -1113 11 -15 40 -38 64 -50 37 -20 60 -23 147 -23 79 0 103
-3 103 -13 0 -23 70 -97 114 -120 l41 -22 980 0 981 0 52 27 52 27 52 -27 52
-27 981 0 980 0 41 22 c44 23 114 97 114 120 0 10 24 13 103 13 87 0 110 3
147 23 24 12 53 35 64 50 21 28 21 36 24 1113 3 1200 6 1127 -64 1180 l-37 29
-2441 1 c-1343 1 -2450 0 -2461 -3z m4855 -228 l0 -85 -205 0 c-161 0 -212 -3
-234 -15 -47 -24 -55 -74 -19 -112 18 -19 32 -23 80 -23 l58 0 0 -85 0 -85
-1005 0 -1005 0 0 85 0 85 819 0 820 0 20 26 c12 15 21 33 21 40 0 29 -25 64
-53 74 -21 7 -672 10 -2073 10 l-2044 0 0 85 0 85 2410 0 2410 0 0 -85z
m-4650 -1125 l0 -890 -85 0 -85 0 0 890 0 890 85 0 85 0 0 -890z m2160 805 l0
-85 -1005 0 -1005 0 0 85 0 85 1005 0 1005 0 0 -85z m2490 -805 l0 -890 -85 0
-85 0 0 890 0 890 85 0 85 0 0 -890z m-4114 537 l24 -28 0 -309 0 -309 -24
-28 c-24 -28 -26 -28 -152 -32 -78 -2 -142 1 -166 8 -66 20 -68 31 -68 360 0
167 4 301 10 316 17 45 59 55 213 53 138 -3 139 -3 163 -31z m1625 -4 c1 -92
44 -139 107 -117 31 11 51 56 51 117 l1 37 728 0 727 0 -3 -339 c-2 -229 0
-353 8 -381 15 -56 80 -124 138 -147 38 -14 76 -18 197 -18 83 0 165 3 183 7
l33 8 -3 -350 c-3 -349 -3 -350 -26 -372 l-23 -23 -927 -3 c-510 -1 -941 0
-958 3 -17 3 -39 12 -50 19 -18 14 -19 37 -24 614 -5 572 -6 601 -24 621 -26
29 -86 29 -112 0 -18 -20 -19 -49 -24 -621 -5 -577 -6 -600 -24 -614 -11 -7
-33 -16 -50 -19 -17 -3 -448 -4 -958 -3 l-927 3 -23 23 c-23 22 -23 23 -26
372 l-3 350 33 -8 c18 -4 101 -7 183 -7 121 0 159 4 197 18 58 23 123 91 138
147 8 28 10 152 8 381 l-3 339 728 0 727 0 1 -37z m2114 22 c21 -8 39 -25 45
-40 6 -15 10 -148 10 -316 0 -329 -2 -340 -68 -360 -24 -7 -88 -10 -166 -8
-126 4 -128 4 -152 32 l-24 28 0 308 c0 394 -15 367 203 370 83 1 128 -3 152
-14z"/>
</g>
</svg>
