<svg width="34" height="39" viewBox="0 0 34 39" fill="none" xmlns="http://www.w3.org/2000/svg">
<path d="M4.97266 12.9531C4.97266 19.5273 10.3516 24.9062 16.9258 24.9062C23.5 24.9062 28.8789 19.5273 28.8789 12.9531C28.8789 6.37891 23.5 1 16.9258 1C10.3516 1 4.97266 6.37891 4.97266 12.9531ZM26.0664 12.9531C26.0664 17.9805 21.9531 22.0938 16.9258 22.0938C11.8984 22.0938 7.78516 17.9805 7.78516 12.9531C7.78516 7.92578 11.8984 3.8125 16.9258 3.8125C21.9531 3.8125 26.0664 7.92578 26.0664 12.9531Z" fill="#B3B3B3" stroke="#B3B3B3"/>
<path d="M3.00391 37.7031C6.73047 33.9766 11.6523 31.9375 16.9258 31.9375C22.1992 31.9375 27.1211 33.9766 30.8477 37.7031L32.8516 35.6992C28.5977 31.4805 22.9375 29.125 16.9258 29.125C10.9141 29.125 5.25391 31.4805 1 35.6992L3.00391 37.7031Z" fill="#B3B3B3" stroke="#B3B3B3"/>
</svg>
