<svg width="34" height="41" viewBox="0 0 34 41" fill="none" xmlns="http://www.w3.org/2000/svg">
<path fill-rule="evenodd" clip-rule="evenodd" d="M31.6072 33.1462L31.4512 33.3229L25.8261 38.9479C25.7754 38.9985 25.7219 39.0463 25.6657 39.0909L25.4384 39.246L25.3009 39.318L25.1377 39.3859L24.9381 39.4456L24.7189 39.4844L24.5621 39.496L24.3895 39.4938L24.1724 39.4684L23.9149 39.4038L23.7066 39.3214L23.5238 39.2233L23.3437 39.0981L23.1743 38.9479L17.5492 33.3229C16.8169 32.5906 16.8169 31.4034 17.5492 30.6712C18.2251 29.9953 19.2887 29.9433 20.0243 30.5152L20.2009 30.6712L22.625 33.0939L22.6251 15.122C22.6251 14.1605 23.349 13.368 24.2815 13.2597L24.5002 13.247C25.5358 13.247 26.3752 14.0865 26.3752 15.122L26.375 33.0939L28.7995 30.6712C29.4754 29.9953 30.539 29.9433 31.2746 30.5152L31.4512 30.6712C32.0708 31.2908 32.1661 32.2361 31.7372 32.9559L31.6072 33.1462ZM2.54919 8.17093L8.17432 2.54593L8.38422 2.36484L8.59213 2.23089L8.80441 2.13007L9.0017 2.06373L9.17244 2.02543L9.38951 2H9.61109L9.82768 2.02538L10.0866 2.09026L10.1878 2.12685L10.3512 2.20049L10.4765 2.27063L10.6284 2.37386L10.748 2.47215L10.8261 2.54593L16.4512 8.17093L16.6072 8.34756C17.1315 9.02181 17.1315 9.97169 16.6072 10.6459L16.4512 10.8226L16.2746 10.9786C15.6003 11.5028 14.6504 11.5028 13.9761 10.9786L13.7995 10.8226L11.375 8.39988L11.3752 26.3717C11.3752 27.3333 10.6514 28.1258 9.71891 28.2341L9.50024 28.2467L9.28148 28.2341C8.4207 28.1342 7.73774 27.4512 7.63776 26.5904L7.62515 26.3717L7.625 8.39988L5.20091 10.8226L5.02426 10.9786C4.2887 11.5505 3.22511 11.4985 2.54919 10.8226C1.87326 10.1467 1.82127 9.08311 2.39321 8.34756L2.54919 8.17093Z" fill="#B3B3B3" stroke="#B3B3B3" stroke-width="2.66667"/>
</svg>
