<svg width="45" height="42" viewBox="0 0 45 42" fill="none" xmlns="http://www.w3.org/2000/svg">
<path fill-rule="evenodd" clip-rule="evenodd" d="M0 37.6467H5.39062V1.57495C5.39062 1.26001 5.65064 1 5.96558 1H24.2249C24.5398 1 24.7998 1.26001 24.7998 1.57495V15.0991H40.957C41.272 15.0991 41.532 15.3591 41.532 15.6741V37.6431H45V42.4001H0V37.6467ZM10.0049 6.42725H13.7402C13.8538 6.42725 13.949 6.52246 13.949 6.63599V11.1624C13.949 11.2759 13.8538 11.3711 13.7402 11.3711H10.0049C9.89136 11.3711 9.79614 11.2759 9.79614 11.1624V6.63599C9.79614 6.52246 9.89136 6.42725 10.0049 6.42725ZM16.333 28.9419H20.0684C20.1819 28.9419 20.2771 29.0371 20.2771 29.1506V33.677C20.2771 33.7905 20.1819 33.8857 20.0684 33.8857H16.333C16.2195 33.8857 16.1243 33.7905 16.1243 33.677V29.1506C16.1243 29.0334 16.2195 28.9419 16.333 28.9419ZM10.0049 28.9419H13.7402C13.8538 28.9419 13.949 29.0371 13.949 29.1506V33.677C13.949 33.7905 13.8538 33.8857 13.7402 33.8857H10.0049C9.89136 33.8857 9.79614 33.7905 9.79614 33.677V29.1506C9.79614 29.0334 9.89136 28.9419 10.0049 28.9419ZM16.333 21.4346H20.0684C20.1819 21.4346 20.2771 21.5298 20.2771 21.6433V26.1697C20.2771 26.2832 20.1819 26.3784 20.0684 26.3784H16.333C16.2195 26.3784 16.1243 26.2832 16.1243 26.1697V21.647C16.1243 21.5298 16.2195 21.4346 16.333 21.4346ZM10.0049 21.4346H13.7402C13.8538 21.4346 13.949 21.5298 13.949 21.6433V26.1697C13.949 26.2832 13.8538 26.3784 13.7402 26.3784H10.0049C9.89136 26.3784 9.79614 26.2832 9.79614 26.1697V21.647C9.79614 21.5298 9.89136 21.4346 10.0049 21.4346ZM16.333 13.9309H20.0684C20.1819 13.9309 20.2771 14.0261 20.2771 14.1396V18.666C20.2771 18.7795 20.1819 18.8748 20.0684 18.8748H16.333C16.2195 18.8748 16.1243 18.7795 16.1243 18.666V14.1396C16.1243 14.0261 16.2195 13.9309 16.333 13.9309ZM10.0049 13.9309H13.7402C13.8538 13.9309 13.949 14.0261 13.949 14.1396V18.666C13.949 18.7795 13.8538 18.8748 13.7402 18.8748H10.0049C9.89136 18.8748 9.79614 18.7795 9.79614 18.666V14.1396C9.79614 14.0261 9.89136 13.9309 10.0049 13.9309ZM16.333 6.42725H20.0684C20.1819 6.42725 20.2771 6.52246 20.2771 6.63599V11.1624C20.2771 11.2759 20.1819 11.3711 20.0684 11.3711H16.333C16.2195 11.3711 16.1243 11.2759 16.1243 11.1624V6.63599C16.1243 6.52246 16.2195 6.42725 16.333 6.42725ZM8.48511 3.68066H21.6394C21.8665 3.68066 22.0532 3.90405 22.0532 4.17505V35.6216C22.0532 35.8926 21.8665 36.116 21.6394 36.116H8.48511C8.25806 36.116 8.07129 35.8926 8.07129 35.6216V4.17505C8.07129 3.90405 8.25806 3.68066 8.48511 3.68066ZM26.5906 20.5667H30.3259C30.4395 20.5667 30.5347 20.6619 30.5347 20.7754V25.3018C30.5347 25.4153 30.4395 25.5105 30.3259 25.5105H26.5906C26.4771 25.5105 26.3818 25.4153 26.3818 25.3018V20.7754C26.3818 20.6619 26.4771 20.5667 26.5906 20.5667ZM32.9187 28.9419H36.6541C36.7676 28.9419 36.8628 29.0371 36.8628 29.1506V33.677C36.8628 33.7905 36.7676 33.8857 36.6541 33.8857H32.9187C32.8052 33.8857 32.71 33.7905 32.71 33.677V29.1506C32.71 29.0334 32.8052 28.9419 32.9187 28.9419ZM26.5906 28.9419H30.3259C30.4395 28.9419 30.5347 29.0371 30.5347 29.1506V33.677C30.5347 33.7905 30.4395 33.8857 30.3259 33.8857H26.5906C26.4771 33.8857 26.3818 33.7905 26.3818 33.677V29.1506C26.3818 29.0334 26.4771 28.9419 26.5906 28.9419ZM32.9187 20.5667H36.6541C36.7676 20.5667 36.8628 20.6619 36.8628 20.7754V25.3018C36.8628 25.4153 36.7676 25.5105 36.6541 25.5105H32.9187C32.8052 25.5105 32.71 25.4153 32.71 25.3018V20.7754C32.71 20.6619 32.8052 20.5667 32.9187 20.5667ZM25.2173 17.7798H38.3716C38.5986 17.7798 38.7854 18.0032 38.7854 18.2742V35.6216C38.7854 35.8926 38.5986 36.116 38.3716 36.116H25.2173C24.9902 36.116 24.8035 35.8926 24.8035 35.6216V18.2742C24.8035 18.0032 24.9902 17.7798 25.2173 17.7798Z" fill="#B3B3B3" stroke="#B3B3B3"/>
</svg>
