<svg width="33" height="33" viewBox="0 0 33 33" fill="none" xmlns="http://www.w3.org/2000/svg">
<path fill-rule="evenodd" clip-rule="evenodd" d="M16.5 25.25C21.3325 25.25 25.25 21.3325 25.25 16.5C25.25 11.6675 21.3325 7.75 16.5 7.75C11.6675 7.75 7.75 11.6675 7.75 16.5C7.75 21.3325 11.6675 25.25 16.5 25.25ZM16.5 22.3333C19.7216 22.3333 22.3333 19.7216 22.3333 16.5C22.3333 13.2783 19.7216 10.6667 16.5 10.6667C13.2783 10.6667 10.6667 13.2783 10.6667 16.5C10.6667 19.7216 13.2783 22.3333 16.5 22.3333Z" fill="white"/>
<path d="M25.2501 6.29167C24.4446 6.29167 23.7917 6.94459 23.7917 7.75C23.7917 8.55541 24.4446 9.20833 25.2501 9.20833C26.0555 9.20833 26.7084 8.55541 26.7084 7.75C26.7084 6.94459 26.0555 6.29167 25.2501 6.29167Z" fill="white"/>
<path fill-rule="evenodd" clip-rule="evenodd" d="M1.41207 5.23592C0.458374 7.10765 0.458374 9.55788 0.458374 14.4583V18.5417C0.458374 23.4421 0.458374 25.8924 1.41207 27.764C2.25096 29.4105 3.58953 30.7491 5.23596 31.5879C7.10769 32.5417 9.55792 32.5417 14.4584 32.5417H18.5417C23.4421 32.5417 25.8924 32.5417 27.7641 31.5879C29.4105 30.7491 30.7491 29.4105 31.588 27.764C32.5417 25.8924 32.5417 23.4421 32.5417 18.5417V14.4583C32.5417 9.55788 32.5417 7.10765 31.588 5.23592C30.7491 3.58949 29.4105 2.25092 27.7641 1.41202C25.8924 0.458332 23.4421 0.458332 18.5417 0.458332H14.4584C9.55792 0.458332 7.10769 0.458332 5.23596 1.41202C3.58953 2.25092 2.25096 3.58949 1.41207 5.23592ZM18.5417 3.375H14.4584C11.96 3.375 10.2617 3.37727 8.94891 3.48452C7.67018 3.58899 7.01627 3.77836 6.5601 4.01079C5.46248 4.57006 4.5701 5.46244 4.01083 6.56006C3.7784 7.01622 3.58904 7.67014 3.48456 8.94887C3.37732 10.2616 3.37504 11.96 3.37504 14.4583V18.5417C3.37504 21.0401 3.37732 22.7383 3.48456 24.0511C3.58904 25.3299 3.7784 25.9838 4.01083 26.44C4.5701 27.5375 5.46248 28.4299 6.5601 28.9892C7.01627 29.2216 7.67018 29.4111 8.94891 29.5155C10.2617 29.6227 11.96 29.625 14.4584 29.625H18.5417C21.0401 29.625 22.7384 29.6227 24.0511 29.5155C25.33 29.4111 25.9839 29.2216 26.44 28.9892C27.5376 28.4299 28.4299 27.5375 28.9892 26.44C29.2217 25.9838 29.4111 25.3299 29.5155 24.0511C29.6227 22.7383 29.625 21.0401 29.625 18.5417V14.4583C29.625 11.96 29.6227 10.2616 29.5155 8.94887C29.4111 7.67014 29.2217 7.01622 28.9892 6.56006C28.4299 5.46244 27.5376 4.57006 26.44 4.01079C25.9839 3.77836 25.33 3.58899 24.0511 3.48452C22.7384 3.37727 21.0401 3.375 18.5417 3.375Z" fill="white"/>
</svg>
