<svg width="33" height="30" viewBox="0 0 33 30" fill="none" xmlns="http://www.w3.org/2000/svg">
<path fill-rule="evenodd" clip-rule="evenodd" d="M32.7045 3.55446C33.1681 1.29438 30.9482 -0.583792 28.7962 0.247706L2.41609 10.44C0.0127826 11.3686 -0.094303 14.7292 2.245 15.8089L7.98984 18.4604L10.7227 28.0255C10.8647 28.5223 11.259 28.907 11.7592 29.0367C12.2593 29.1662 12.7908 29.0215 13.1562 28.656L17.3659 24.4463L23.263 28.8691C24.9748 30.1529 27.4402 29.2178 27.8701 27.1217L32.7045 3.55446ZM3.46726 13.1607L29.8473 2.96837L25.013 26.5358L18.1041 21.354C17.5236 20.9186 16.7111 20.9763 16.1979 21.4895L14.3948 23.2926L14.9366 20.3131L25.552 9.69775C26.0687 9.18114 26.1232 8.36196 25.6797 7.78135C25.2362 7.20073 24.4317 7.03788 23.7973 7.40036L9.13717 15.7775L3.46726 13.1607ZM10.9247 18.1154L11.809 21.2105L12.1485 19.3431C12.2016 19.0513 12.3424 18.7825 12.5521 18.5728L15.7894 15.3356L10.9247 18.1154Z" fill="white"/>
</svg>
